<svg width="33" height="33" viewBox="0 0 33 33" fill="none" xmlns="http://www.w3.org/2000/svg">
<path fill-rule="evenodd" clip-rule="evenodd" d="M3.25031 1.38187C3.25031 1.17097 3.42854 1 3.6484 1H32.3115C32.5314 1 32.7096 1.17097 32.7096 1.38187V29.0039C32.7096 29.2148 32.5314 29.3858 32.3115 29.3858C32.0916 29.3858 31.9134 29.2148 31.9134 29.0039V1.76374H3.6484C3.42854 1.76374 3.25031 1.59277 3.25031 1.38187Z" fill="white"/>
<path fill-rule="evenodd" clip-rule="evenodd" d="M0.480366 6.65749L2.99386 4.14399C3.1481 3.98975 3.39817 3.98975 3.55241 4.14399L6.06591 6.65749C6.22015 6.81173 6.22015 7.0618 6.06591 7.21604C5.91167 7.37028 5.6616 7.37028 5.50736 7.21604L3.6681 5.37678L3.6681 29.4373H2.87818L2.87818 5.37678L1.03892 7.21604C0.88468 7.37028 0.634606 7.37028 0.480366 7.21604C0.326125 7.0618 0.326125 6.81173 0.480366 6.65749Z" fill="white"/>
<path fill-rule="evenodd" clip-rule="evenodd" d="M25.7758 26.6437L28.3024 29.1572C28.4575 29.3115 28.4575 29.5615 28.3024 29.7158L25.7758 32.2293C25.6208 32.3835 25.3694 32.3835 25.2143 32.2293C25.0593 32.075 25.0593 31.825 25.2143 31.6707L27.0632 29.8315H2.87721V29.0415H27.0632L25.2143 27.2023C25.0593 27.048 25.0593 26.798 25.2143 26.6437C25.3694 26.4895 25.6208 26.4895 25.7758 26.6437Z" fill="white"/>
<path fill-rule="evenodd" clip-rule="evenodd" d="M14.1625 1.11568C14.3167 1.26992 14.3167 1.51999 14.1625 1.67423L9.42299 6.41373C9.26875 6.56797 9.01868 6.56797 8.86444 6.41373C8.7102 6.25949 8.7102 6.00941 8.86444 5.85517L13.6039 1.11568C13.7582 0.96144 14.0082 0.96144 14.1625 1.11568Z" fill="white"/>
<path fill-rule="evenodd" clip-rule="evenodd" d="M32.4623 19.9424C32.6165 20.0966 32.6165 20.3467 32.4623 20.5009L28.1177 24.8454C27.9635 24.9997 27.7134 24.9997 27.5592 24.8454C27.4049 24.6912 27.4049 24.4411 27.5592 24.2869L31.9037 19.9424C32.0579 19.7881 32.308 19.7881 32.4623 19.9424Z" fill="white"/>
<path fill-rule="evenodd" clip-rule="evenodd" d="M20.0851 1.11391C20.2403 1.26716 20.2419 1.51723 20.0887 1.67245L9.81976 12.073C9.66651 12.2282 9.41644 12.2298 9.26122 12.0766C9.106 11.9233 9.10441 11.6732 9.25766 11.518L19.5266 1.11746C19.6798 0.962245 19.9299 0.960652 20.0851 1.11391Z" fill="white"/>
<path fill-rule="evenodd" clip-rule="evenodd" d="M32.5939 13.3591C32.7481 13.5134 32.7481 13.7634 32.5939 13.9177L22.5883 23.9233C22.434 24.0775 22.184 24.0775 22.0297 23.9233C21.8755 23.769 21.8755 23.519 22.0297 23.3647L32.0353 13.3591C32.1895 13.2049 32.4396 13.2049 32.5939 13.3591Z" fill="white"/>
<path fill-rule="evenodd" clip-rule="evenodd" d="M26.4085 1.24961C26.5615 1.40509 26.5594 1.65515 26.404 1.80814L9.94739 18.0014C9.79191 18.1544 9.54185 18.1524 9.38886 17.9969C9.23586 17.8414 9.23788 17.5914 9.39336 17.4384L25.8499 1.2451C26.0054 1.09211 26.2555 1.09413 26.4085 1.24961Z" fill="white"/>
<path fill-rule="evenodd" clip-rule="evenodd" d="M32.5939 7.1718C32.7482 7.32604 32.7482 7.57611 32.5939 7.73035L16.0057 24.3186C15.8515 24.4728 15.6014 24.4728 15.4472 24.3186C15.2929 24.1643 15.2929 23.9143 15.4472 23.76L32.0354 7.1718C32.1896 7.01756 32.4397 7.01756 32.5939 7.1718Z" fill="white"/>
<path fill-rule="evenodd" clip-rule="evenodd" d="M32.3306 1.24734C32.4849 1.40159 32.4849 1.65166 32.3306 1.8059L9.68638 24.4501C9.53214 24.6044 9.28207 24.6044 9.12782 24.4501C8.97358 24.2959 8.97358 24.0458 9.12782 23.8916L31.7721 1.24734C31.9263 1.0931 32.1764 1.0931 32.3306 1.24734Z" fill="white"/>
<path d="M31.9134 1.76374H32.1634C32.1634 1.62567 32.0515 1.51374 31.9134 1.51374V1.76374ZM2.99386 4.14399L2.81708 3.96721L2.81708 3.96722L2.99386 4.14399ZM0.480366 6.65749L0.657142 6.83427L0.657142 6.83427L0.480366 6.65749ZM3.55241 4.14399L3.72919 3.96722L3.72919 3.96721L3.55241 4.14399ZM6.06591 6.65749L5.88913 6.83426L5.88913 6.83427L6.06591 6.65749ZM6.06591 7.21604L6.24269 7.39282L6.24269 7.39282L6.06591 7.21604ZM5.50736 7.21604L5.33058 7.39282L5.33058 7.39282L5.50736 7.21604ZM3.6681 5.37678L3.84487 5.20001L3.4181 4.77323L3.4181 5.37678L3.6681 5.37678ZM3.6681 29.4373V29.6873H3.9181L3.9181 29.4373L3.6681 29.4373ZM2.87818 29.4373L2.62818 29.4373L2.62818 29.6873H2.87818V29.4373ZM2.87818 5.37678L3.12818 5.37678L3.12818 4.77323L2.7014 5.20001L2.87818 5.37678ZM1.03892 7.21604L1.2157 7.39282L1.2157 7.39282L1.03892 7.21604ZM0.480366 7.21604L0.303588 7.39282L0.303589 7.39282L0.480366 7.21604ZM28.3024 29.1572L28.4787 28.98L28.4787 28.98L28.3024 29.1572ZM25.7758 26.6437L25.5995 26.821L25.5995 26.821L25.7758 26.6437ZM28.3024 29.7158L28.4787 29.893L28.4787 29.893L28.3024 29.7158ZM25.7758 32.2293L25.5995 32.052L25.5995 32.052L25.7758 32.2293ZM25.2143 32.2293L25.038 32.4065L25.038 32.4065L25.2143 32.2293ZM25.2143 31.6707L25.038 31.4935L25.038 31.4935L25.2143 31.6707ZM27.0632 29.8315L27.2395 30.0087L27.669 29.5815H27.0632V29.8315ZM2.87721 29.8315H2.62721V30.0815H2.87721V29.8315ZM2.87721 29.0415V28.7915H2.62721V29.0415H2.87721ZM27.0632 29.0415V29.2915H27.669L27.2395 28.8643L27.0632 29.0415ZM25.2143 27.2023L25.038 27.3795L25.038 27.3795L25.2143 27.2023ZM25.2143 26.6437L25.038 26.4665L25.038 26.4665L25.2143 26.6437ZM14.1625 1.67423L13.9857 1.49746L13.9857 1.49746L14.1625 1.67423ZM14.1625 1.11568L13.9857 1.29246L13.9857 1.29246L14.1625 1.11568ZM9.42299 6.41373L9.24622 6.23695L9.24622 6.23695L9.42299 6.41373ZM8.86444 6.41373L9.04122 6.23695L9.04122 6.23695L8.86444 6.41373ZM8.86444 5.85517L9.04122 6.03195L9.04122 6.03195L8.86444 5.85517ZM13.6039 1.11568L13.7807 1.29246L13.7807 1.29246L13.6039 1.11568ZM32.4623 20.5009L32.2855 20.3241L32.2855 20.3241L32.4623 20.5009ZM32.4623 19.9424L32.2855 20.1191L32.2855 20.1191L32.4623 19.9424ZM28.1177 24.8454L27.941 24.6687L27.941 24.6687L28.1177 24.8454ZM27.5592 24.8454L27.736 24.6687L27.736 24.6687L27.5592 24.8454ZM27.5592 24.2869L27.736 24.4637L27.736 24.4637L27.5592 24.2869ZM31.9037 19.9424L32.0805 20.1191L32.0805 20.1191L31.9037 19.9424ZM20.0887 1.67245L20.2666 1.8481L20.2666 1.8481L20.0887 1.67245ZM20.0851 1.11391L20.2608 0.936008L20.2608 0.936008L20.0851 1.11391ZM9.81976 12.073L9.99766 12.2486L9.99766 12.2486L9.81976 12.073ZM9.26122 12.0766L9.43687 11.8987L9.43687 11.8987L9.26122 12.0766ZM9.25766 11.518L9.43556 11.6937L9.43556 11.6937L9.25766 11.518ZM19.5266 1.11746L19.7045 1.29311L19.7045 1.29311L19.5266 1.11746ZM32.5939 13.9177L32.7706 14.0945L32.7706 14.0945L32.5939 13.9177ZM32.5939 13.3591L32.7706 13.1824L32.7706 13.1824L32.5939 13.3591ZM22.5883 23.9233L22.765 24.1001L22.765 24.1001L22.5883 23.9233ZM22.0297 23.9233L21.8529 24.1001L21.8529 24.1001L22.0297 23.9233ZM22.0297 23.3647L21.8529 23.188L21.8529 23.188L22.0297 23.3647ZM32.0353 13.3591L31.8585 13.1824L31.8585 13.1824L32.0353 13.3591ZM26.404 1.80814L26.2286 1.62995L26.2286 1.62995L26.404 1.80814ZM26.4085 1.24961L26.5867 1.07426L26.5867 1.07426L26.4085 1.24961ZM9.94739 18.0014L10.1227 18.1796L10.1227 18.1796L9.94739 18.0014ZM9.38886 17.9969L9.56705 17.8216L9.56705 17.8216L9.38886 17.9969ZM9.39336 17.4384L9.56871 17.6166L9.56871 17.6166L9.39336 17.4384ZM25.8499 1.2451L26.0253 1.4233L26.0253 1.4233L25.8499 1.2451ZM32.5939 7.73035L32.7707 7.90713L32.7707 7.90713L32.5939 7.73035ZM32.5939 7.1718L32.7707 6.99502L32.7707 6.99502L32.5939 7.1718ZM16.0057 24.3186L16.1825 24.4954L16.1825 24.4954L16.0057 24.3186ZM15.4472 24.3186L15.2704 24.4954L15.2704 24.4954L15.4472 24.3186ZM15.4472 23.76L15.2704 23.5832L15.2704 23.5832L15.4472 23.76ZM32.0354 7.1718L31.8586 6.99502L31.8586 6.99502L32.0354 7.1718ZM32.3306 1.8059L32.5074 1.98268L32.5074 1.98268L32.3306 1.8059ZM32.3306 1.24734L32.1538 1.42412L32.1538 1.42412L32.3306 1.24734ZM9.68638 24.4501L9.86316 24.6269L9.86316 24.6269L9.68638 24.4501ZM9.12782 24.4501L9.3046 24.2734L9.3046 24.2734L9.12782 24.4501ZM9.12782 23.8916L9.3046 24.0684L9.3046 24.0684L9.12782 23.8916ZM31.7721 1.24734L31.9488 1.42412L31.9488 1.42412L31.7721 1.24734ZM3.6484 0.75C3.30038 0.75 3.00031 1.0232 3.00031 1.38187H3.50031C3.50031 1.31874 3.5567 1.25 3.6484 1.25V0.75ZM32.3115 0.75H3.6484V1.25H32.3115V0.75ZM32.9596 1.38187C32.9596 1.0232 32.6595 0.75 32.3115 0.75V1.25C32.4032 1.25 32.4596 1.31874 32.4596 1.38187H32.9596ZM32.9596 29.0039V1.38187H32.4596V29.0039H32.9596ZM32.3115 29.6358C32.6595 29.6358 32.9596 29.3626 32.9596 29.0039H32.4596C32.4596 29.0671 32.4032 29.1358 32.3115 29.1358V29.6358ZM31.6634 29.0039C31.6634 29.3626 31.9635 29.6358 32.3115 29.6358V29.1358C32.2198 29.1358 32.1634 29.0671 32.1634 29.0039H31.6634ZM31.6634 1.76374V29.0039H32.1634V1.76374H31.6634ZM3.6484 2.01374H31.9134V1.51374H3.6484V2.01374ZM3.00031 1.38187C3.00031 1.74055 3.30038 2.01374 3.6484 2.01374V1.51374C3.5567 1.51374 3.50031 1.445 3.50031 1.38187H3.00031ZM2.81708 3.96722L0.303589 6.48071L0.657142 6.83427L3.17064 4.32077L2.81708 3.96722ZM3.72919 3.96721C3.47732 3.71534 3.06896 3.71534 2.81708 3.96721L3.17064 4.32077C3.22725 4.26416 3.31903 4.26416 3.37564 4.32077L3.72919 3.96721ZM6.24269 6.48071L3.72919 3.96722L3.37564 4.32077L5.88913 6.83426L6.24269 6.48071ZM6.24269 7.39282C6.49456 7.14095 6.49456 6.73258 6.24269 6.48071L5.88913 6.83427C5.94574 6.89087 5.94574 6.98266 5.88913 7.03927L6.24269 7.39282ZM5.33058 7.39282C5.58245 7.64469 5.99081 7.64469 6.24269 7.39282L5.88913 7.03927C5.83252 7.09588 5.74074 7.09588 5.68413 7.03927L5.33058 7.39282ZM3.49132 5.55356L5.33058 7.39282L5.68413 7.03927L3.84487 5.20001L3.49132 5.55356ZM3.9181 29.4373L3.9181 5.37678L3.4181 5.37678L3.4181 29.4373L3.9181 29.4373ZM2.87818 29.6873H3.6681V29.1873H2.87818V29.6873ZM2.62818 5.37678L2.62818 29.4373L3.12818 29.4373L3.12818 5.37678L2.62818 5.37678ZM1.2157 7.39282L3.05496 5.55356L2.7014 5.20001L0.862143 7.03927L1.2157 7.39282ZM0.303589 7.39282C0.555461 7.64469 0.963825 7.64469 1.2157 7.39282L0.862144 7.03927C0.805534 7.09588 0.713752 7.09588 0.657142 7.03927L0.303589 7.39282ZM0.303589 6.48071C0.0517164 6.73258 0.0517181 7.14095 0.303588 7.39282L0.657143 7.03927C0.600532 6.98266 0.600533 6.89087 0.657142 6.83427L0.303589 6.48071ZM28.4787 28.98L25.9521 26.4665L25.5995 26.821L28.1261 29.3345L28.4787 28.98ZM28.4787 29.893C28.732 29.641 28.732 29.232 28.4787 28.98L28.1261 29.3345C28.1829 29.391 28.1829 29.482 28.1261 29.5385L28.4787 29.893ZM25.9521 32.4065L28.4787 29.893L28.1261 29.5385L25.5995 32.052L25.9521 32.4065ZM25.038 32.4065C25.2906 32.6578 25.6996 32.6578 25.9521 32.4065L25.5995 32.052C25.542 32.1093 25.4482 32.1093 25.3907 32.052L25.038 32.4065ZM25.038 31.4935C24.7847 31.7455 24.7847 32.1545 25.038 32.4065L25.3907 32.052C25.3339 31.9955 25.3339 31.9045 25.3907 31.848L25.038 31.4935ZM26.8869 29.6542L25.038 31.4935L25.3907 31.848L27.2395 30.0087L26.8869 29.6542ZM2.87721 30.0815H27.0632V29.5815H2.87721V30.0815ZM2.62721 29.0415V29.8315H3.12721V29.0415H2.62721ZM27.0632 28.7915H2.87721V29.2915H27.0632V28.7915ZM25.038 27.3795L26.8869 29.2188L27.2395 28.8643L25.3907 27.0251L25.038 27.3795ZM25.038 26.4665C24.7847 26.7185 24.7847 27.1275 25.038 27.3795L25.3907 27.0251C25.3339 26.9685 25.3339 26.8775 25.3907 26.821L25.038 26.4665ZM25.9521 26.4665C25.6996 26.2152 25.2906 26.2152 25.038 26.4665L25.3907 26.821C25.4482 26.7637 25.542 26.7637 25.5995 26.821L25.9521 26.4665ZM14.3393 1.85101C14.5911 1.59914 14.5911 1.19078 14.3393 0.938904L13.9857 1.29246C14.0423 1.34907 14.0423 1.44085 13.9857 1.49746L14.3393 1.85101ZM9.59977 6.5905L14.3393 1.85101L13.9857 1.49746L9.24622 6.23695L9.59977 6.5905ZM8.68766 6.5905C8.93953 6.84238 9.3479 6.84238 9.59977 6.5905L9.24622 6.23695C9.18961 6.29356 9.09783 6.29356 9.04122 6.23695L8.68766 6.5905ZM8.68766 5.6784C8.43579 5.93027 8.43579 6.33863 8.68766 6.5905L9.04122 6.23695C8.98461 6.18034 8.98461 6.08856 9.04122 6.03195L8.68766 5.6784ZM13.4272 0.938904L8.68766 5.6784L9.04122 6.03195L13.7807 1.29246L13.4272 0.938904ZM14.3393 0.938904C14.0874 0.687032 13.679 0.687032 13.4272 0.938904L13.7807 1.29246C13.8373 1.23585 13.9291 1.23585 13.9857 1.29246L14.3393 0.938904ZM32.639 20.6777C32.8909 20.4258 32.8909 20.0175 32.639 19.7656L32.2855 20.1191C32.3421 20.1757 32.3421 20.2675 32.2855 20.3241L32.639 20.6777ZM28.2945 25.0222L32.639 20.6777L32.2855 20.3241L27.941 24.6687L28.2945 25.0222ZM27.3824 25.0222C27.6343 25.2741 28.0426 25.2741 28.2945 25.0222L27.941 24.6687C27.8843 24.7253 27.7926 24.7253 27.736 24.6687L27.3824 25.0222ZM27.3824 24.1101C27.1305 24.362 27.1305 24.7704 27.3824 25.0222L27.736 24.6687C27.6793 24.6121 27.6793 24.5203 27.736 24.4637L27.3824 24.1101ZM31.7269 19.7656L27.3824 24.1101L27.736 24.4637L32.0805 20.1191L31.7269 19.7656ZM32.639 19.7656C32.3872 19.5137 31.9788 19.5137 31.7269 19.7656L32.0805 20.1191C32.1371 20.0625 32.2289 20.0625 32.2855 20.1191L32.639 19.7656ZM20.2666 1.8481C20.5168 1.59463 20.5142 1.18627 20.2608 0.936008L19.9095 1.29181C19.9664 1.34805 19.967 1.43983 19.9108 1.4968L20.2666 1.8481ZM9.99766 12.2486L20.2666 1.8481L19.9108 1.4968L9.64186 11.8974L9.99766 12.2486ZM9.08557 12.2545C9.33904 12.5047 9.7474 12.5021 9.99766 12.2486L9.64186 11.8974C9.58561 11.9543 9.49383 11.9549 9.43687 11.8987L9.08557 12.2545ZM9.07976 11.3424C8.8295 11.5958 8.8321 12.0042 9.08557 12.2545L9.43687 11.8987C9.3799 11.8424 9.37931 11.7506 9.43556 11.6937L9.07976 11.3424ZM19.3487 0.941818L9.07976 11.3424L9.43556 11.6937L19.7045 1.29311L19.3487 0.941818ZM20.2608 0.936008C20.0073 0.685746 19.5989 0.688347 19.3487 0.941818L19.7045 1.29311C19.7607 1.23614 19.8525 1.23556 19.9095 1.29181L20.2608 0.936008ZM32.7706 14.0945C33.0225 13.8426 33.0225 13.4342 32.7706 13.1824L32.4171 13.5359C32.4737 13.5925 32.4737 13.6843 32.4171 13.7409L32.7706 14.0945ZM22.765 24.1001L32.7706 14.0945L32.4171 13.7409L22.4115 23.7465L22.765 24.1001ZM21.8529 24.1001C22.1048 24.3519 22.5132 24.3519 22.765 24.1001L22.4115 23.7465C22.3549 23.8031 22.2631 23.8031 22.2065 23.7465L21.8529 24.1001ZM21.8529 23.188C21.6011 23.4398 21.6011 23.8482 21.8529 24.1001L22.2065 23.7465C22.1499 23.6899 22.1499 23.5981 22.2065 23.5415L21.8529 23.188ZM31.8585 13.1824L21.8529 23.188L22.2065 23.5415L32.2121 13.5359L31.8585 13.1824ZM32.7706 13.1824C32.5188 12.9305 32.1104 12.9305 31.8585 13.1824L32.2121 13.5359C32.2687 13.4793 32.3605 13.4793 32.4171 13.5359L32.7706 13.1824ZM26.5793 1.98634C26.8332 1.73651 26.8365 1.32816 26.5867 1.07426L26.2303 1.42495C26.2864 1.48202 26.2857 1.57379 26.2286 1.62995L26.5793 1.98634ZM10.1227 18.1796L26.5793 1.98634L26.2286 1.62995L9.77205 17.8232L10.1227 18.1796ZM9.21066 18.1722C9.46049 18.4261 9.86884 18.4294 10.1227 18.1796L9.77205 17.8232C9.71498 17.8794 9.6232 17.8786 9.56705 17.8216L9.21066 18.1722ZM9.21801 17.2602C8.96412 17.51 8.96083 17.9184 9.21066 18.1723L9.56705 17.8216C9.5109 17.7645 9.51164 17.6727 9.56871 17.6166L9.21801 17.2602ZM25.6746 1.06691L9.21801 17.2602L9.56871 17.6166L26.0253 1.4233L25.6746 1.06691ZM26.5867 1.07426C26.3368 0.820366 25.9285 0.817073 25.6746 1.06691L26.0253 1.4233C26.0823 1.36715 26.1741 1.36789 26.2303 1.42495L26.5867 1.07426ZM32.7707 7.90713C33.0226 7.65526 33.0226 7.24689 32.7707 6.99502L32.4172 7.34858C32.4738 7.40519 32.4738 7.49697 32.4172 7.55358L32.7707 7.90713ZM16.1825 24.4954L32.7707 7.90713L32.4172 7.55358L15.8289 24.1418L16.1825 24.4954ZM15.2704 24.4954C15.5223 24.7472 15.9306 24.7472 16.1825 24.4954L15.8289 24.1418C15.7723 24.1984 15.6805 24.1984 15.6239 24.1418L15.2704 24.4954ZM15.2704 23.5832C15.0185 23.8351 15.0185 24.2435 15.2704 24.4954L15.6239 24.1418C15.5673 24.0852 15.5673 23.9934 15.6239 23.9368L15.2704 23.5832ZM31.8586 6.99502L15.2704 23.5832L15.6239 23.9368L32.2122 7.34858L31.8586 6.99502ZM32.7707 6.99502C32.5188 6.74315 32.1105 6.74315 31.8586 6.99502L32.2122 7.34858C32.2688 7.29197 32.3606 7.29197 32.4172 7.34858L32.7707 6.99502ZM32.5074 1.98268C32.7593 1.7308 32.7593 1.32244 32.5074 1.07057L32.1538 1.42412C32.2105 1.48073 32.2105 1.57251 32.1538 1.62912L32.5074 1.98268ZM9.86316 24.6269L32.5074 1.98268L32.1538 1.62912L9.5096 24.2734L9.86316 24.6269ZM8.95105 24.6269C9.20292 24.8788 9.61128 24.8788 9.86316 24.6269L9.5096 24.2734C9.45299 24.33 9.36121 24.33 9.3046 24.2734L8.95105 24.6269ZM8.95105 23.7148C8.69918 23.9667 8.69918 24.375 8.95105 24.6269L9.3046 24.2734C9.24799 24.2168 9.24799 24.125 9.3046 24.0684L8.95105 23.7148ZM31.5953 1.07057L8.95105 23.7148L9.3046 24.0684L31.9488 1.42412L31.5953 1.07057ZM32.5074 1.07057C32.2555 0.818697 31.8472 0.818697 31.5953 1.07057L31.9488 1.42412C32.0055 1.36751 32.0972 1.36751 32.1538 1.42412L32.5074 1.07057Z" fill="white"/>
</svg>
